<?xml version="1.0" encoding="utf-8"?>
<svg width="104px" height="30px" viewBox="0 0 104 30" version="1.1" xmlns:xlink="http://www.w3.org/1999/xlink" xmlns="http://www.w3.org/2000/svg">
  <g id="Group-Copy">
    <path d="M15.1498 22.8261L7.45286 24.8618C7.32806 24.8769 7.20629 24.8276 7.12779 24.732C7.04828 24.6354 7.02413 24.5056 7.06439 24.3868L7.98725 21.6162L0.145397 15.7338C0.0377121 15.6523 -0.0166335 15.5194 0.00450095 15.3856C0.0256353 15.2517 0.120237 15.142 0.248049 15.0998L2.87072 14.2252L1.04512 10.574C0.981714 10.4472 0.997816 10.2952 1.08638 10.1855C1.17494 10.0758 1.31785 10.0245 1.45673 10.0607L5.15726 10.9856L6.05799 8.28442C6.09724 8.16466 6.19586 8.07509 6.31864 8.0459C6.44042 8.01773 6.56924 8.05396 6.6578 8.14252L10.8102 12.2939L9.06712 4.45306C9.03894 4.32626 9.08121 4.1924 9.17782 4.10585C9.27544 4.0183 9.41332 3.99012 9.53509 4.03138L12.2795 4.9462L15.1498 0.163791C15.2806 -0.0545971 15.6399 -0.0545971 15.7707 0.163791L18.641 4.9462L21.3854 4.03138C21.5122 3.99012 21.6461 4.0183 21.7427 4.10585C21.8403 4.1924 21.8826 4.32626 21.8534 4.45306L20.1113 12.2959L24.2627 8.14453C24.3513 8.05597 24.4791 8.01873 24.6029 8.04792C24.7247 8.0771 24.8233 8.16667 24.8636 8.28644L25.7643 10.9876L29.4648 10.0627C29.5987 10.0295 29.7466 10.0768 29.8352 10.1875C29.9237 10.2972 29.9398 10.4492 29.8764 10.576L28.0488 14.2272L30.6715 15.1018C30.7993 15.144 30.8929 15.2537 30.914 15.3876C30.9352 15.5214 30.8818 15.6543 30.7731 15.7358L22.9313 21.6172L23.8551 24.3888C23.8944 24.5076 23.8702 24.6374 23.7917 24.734C23.7142 24.8306 23.5985 24.8809 23.4667 24.8638L16.6304 22.8261L17.9348 30L14.3478 30L15.1498 22.8261Z" id="canada--maple-leaf_1_-path" fill="#D5C76D" fill-rule="evenodd" stroke="none" />
    <path d="M103.009 15.1083C103.009 16.317 102.787 17.3575 102.344 18.2298C101.9 19.1021 101.293 19.7721 100.523 20.2396C99.7518 20.7072 98.8768 20.941 97.8973 20.941C96.9141 20.941 96.0371 20.7072 95.2665 20.2396C94.4958 19.7721 93.8887 19.1021 93.4451 18.2298C93.0016 17.3575 92.7798 16.317 92.7798 15.1083C92.7798 13.8959 93.0016 12.8545 93.4451 11.9841C93.8887 11.1136 94.4958 10.4446 95.2665 9.977C96.0371 9.50942 96.9141 9.27563 97.8973 9.27563C98.8768 9.27563 99.7518 9.50942 100.523 9.977C101.293 10.4446 101.9 11.1136 102.344 11.9841C102.787 12.8545 103.009 13.8959 103.009 15.1083L103.009 15.1083ZM101.313 15.1084C101.313 14.1843 101.164 13.4054 100.866 12.7714C100.569 12.1375 100.162 11.657 99.6465 11.3299C99.1309 11.0028 98.5478 10.8392 97.8972 10.8392C97.2467 10.8392 96.6636 11.0028 96.148 11.3299C95.6324 11.657 95.2258 12.1375 94.9282 12.7714C94.6307 13.4054 94.4819 14.1843 94.4819 15.1084C94.4819 16.0288 94.6307 16.8068 94.9282 17.4426C95.2258 18.0783 95.6324 18.5598 96.148 18.8869C96.6636 19.214 97.2467 19.3776 97.8972 19.3776C98.5478 19.3776 99.1309 19.214 99.6465 18.8869C100.162 18.5598 100.569 18.0783 100.866 17.4426C101.164 16.8068 101.313 16.0288 101.313 15.1084L101.313 15.1084ZM83.7314 20.7858L83.7314 9.43091L90.8504 9.43091L90.8504 10.9057L85.4446 10.9057L85.4446 14.3654L90.4789 14.3654L90.4789 15.8347L85.4446 15.8347L85.4446 19.311L90.9169 19.311L90.9169 20.7858L83.7314 20.7858ZM79.7228 13.0181C79.5084 12.3454 79.1508 11.814 78.65 11.4241C78.1491 11.0341 77.5217 10.8391 76.7677 10.8391C76.1282 10.8391 75.5516 11.0036 75.0378 11.3326C74.524 11.6616 74.1184 12.143 73.8208 12.7769C73.5233 13.4108 73.3745 14.1861 73.3745 15.1028C73.3745 16.0231 73.5242 16.8012 73.8236 17.437C74.123 18.0727 74.5333 18.5551 75.0544 18.884C75.5756 19.213 76.1689 19.3775 76.8342 19.3775C77.7435 19.3775 78.4772 19.1086 79.0353 18.5708C79.5934 18.033 79.8817 17.3057 79.9002 16.3891L77.0948 16.3891L77.0948 14.9752L81.558 14.9752L81.558 16.2671C81.558 17.2207 81.3556 18.0478 80.9509 18.7482C80.5461 19.4486 79.9889 19.9892 79.2793 20.3699C78.5696 20.7506 77.7546 20.941 76.8342 20.941C75.8103 20.941 74.9103 20.7054 74.1341 20.2341C73.3579 19.7628 72.7535 19.091 72.3211 18.2187C71.8886 17.3464 71.6724 16.3114 71.6724 15.1139C71.6724 13.9052 71.8923 12.8647 72.3322 11.9924C72.772 11.1201 73.3745 10.4492 74.1396 9.97977C74.9047 9.51035 75.7771 9.27563 76.7566 9.27563C77.5734 9.27563 78.3145 9.43365 78.9799 9.74968C79.6452 10.0657 80.1969 10.5046 80.6349 11.0665C81.0729 11.6283 81.3547 12.2788 81.4804 13.0181L79.7228 13.0181ZM69.5433 9.43091L69.5433 20.7858L67.9687 20.7858L62.197 12.4581L62.0917 12.4581L62.0917 20.7858L60.3785 20.7858L60.3785 9.43091L61.9642 9.43091L67.7414 17.7696L67.8468 17.7696L67.8468 9.43091L69.5433 9.43091ZM50.4097 20.7858L48.5912 20.7858L52.6774 9.43091L54.6567 9.43091L58.7429 20.7858L56.9244 20.7858L55.8876 17.7807L51.4521 17.7807L50.4097 20.7858ZM51.9511 16.3391L55.3886 16.3391L53.7142 11.4933L53.6255 11.4933L51.9511 16.3391ZM47.3991 13.1234L45.6693 13.1234C45.5288 12.3879 45.1841 11.8233 44.6353 11.4296C44.0864 11.036 43.4497 10.8391 42.7252 10.8391C42.0747 10.8391 41.4907 11.0036 40.9732 11.3326C40.4557 11.6616 40.0482 12.143 39.7507 12.7769C39.4531 13.4108 39.3043 14.1879 39.3043 15.1083C39.3043 16.0324 39.454 16.8123 39.7534 17.448C40.0528 18.0838 40.4603 18.5643 40.976 18.8896C41.4916 19.2148 42.0728 19.3775 42.7197 19.3775C43.4367 19.3775 44.0707 19.1834 44.6214 18.7953C45.1721 18.4072 45.5214 17.8509 45.6693 17.1265L47.3991 17.132C47.2771 17.8787 47.0036 18.5384 46.5786 19.1114C46.1535 19.6843 45.6101 20.1324 44.9485 20.4559C44.2869 20.7793 43.5402 20.941 42.7086 20.941C41.7254 20.941 40.8494 20.7072 40.0806 20.2396C39.3117 19.7721 38.7065 19.1021 38.2648 18.2298C37.8231 17.3575 37.6022 16.317 37.6022 15.1083C37.6022 13.8959 37.824 12.8545 38.2675 11.9841C38.7111 11.1136 39.3173 10.4446 40.0861 9.977C40.8549 9.50942 41.7291 9.27563 42.7086 9.27563C43.5107 9.27563 44.2416 9.42718 44.9014 9.73027C45.5612 10.0334 46.1101 10.4723 46.5481 11.0471C46.9861 11.6218 47.2698 12.314 47.3991 13.1234L47.3991 13.1234Z" id="CANGEO" fill="#FFFFFF" stroke="none" />
  </g>
</svg>