<?xml version="1.0" encoding="utf-8"?>
<svg width="153px" height="64px" viewBox="0 0 153 64" version="1.1" xmlns:xlink="http://www.w3.org/1999/xlink" xmlns="http://www.w3.org/2000/svg">
  <g id="cangeo">
    <path d="M0 32C0 14.3269 14.3269 0 32 0C49.6731 0 64 14.3269 64 32C64 49.6731 49.6731 64 32 64C14.3269 64 0 49.6731 0 32ZM141.661 23.7103C144.43 23.7103 146.785 24.549 148.725 26.2263C149.861 27.1948 150.719 28.3228 151.299 29.6104C151.879 30.898 152.169 32.2387 152.169 33.6324C152.169 35.3808 151.731 37.0168 150.855 38.5405C149.98 40.0642 148.72 41.2868 147.075 42.2081C145.43 43.1294 143.625 43.5901 141.661 43.5901C138.703 43.5901 136.212 42.6392 134.188 40.7373C132.165 38.8355 131.153 36.5027 131.153 33.7389C131.153 30.9511 132.153 28.5827 134.153 26.6337C136.153 24.6848 138.655 23.7103 141.661 23.7103L141.661 23.7103ZM144.359 34.4101C144.406 34.0806 144.43 33.8334 144.43 33.6685C144.43 33.0095 144.276 32.4328 143.969 31.9384C143.401 31.0206 142.632 30.5617 141.661 30.5617C140.691 30.5617 139.922 31.0206 139.354 31.9384C139.046 32.4328 138.892 33.0214 138.892 33.704C138.892 34.6455 139.164 35.428 139.709 36.0517C140.253 36.6753 140.904 36.9872 141.661 36.9872C141.78 36.9872 141.957 36.9637 142.194 36.9167C143.424 36.6579 144.146 35.8223 144.359 34.4101L144.359 34.4101ZM117.379 35.4961L118.018 36.1562C118.847 36.7811 120.207 37.0936 122.101 37.0936C122.716 37.0936 123.627 36.9351 124.834 36.6182C125.686 36.4145 126.278 36.3126 126.609 36.3126C127.509 36.3126 128.248 36.5776 128.828 37.1075C129.408 37.6374 129.698 38.3026 129.698 39.1032C129.698 39.4094 129.674 39.6331 129.627 39.7744C129.437 40.4337 129.088 40.9812 128.579 41.4168C128.071 41.8524 127.236 42.2704 126.077 42.6709C125.603 42.8122 125.118 42.9358 124.621 43.0417C124.124 43.1477 123.657 43.2301 123.219 43.2891C122.781 43.3481 122.337 43.3893 121.888 43.4128C121.438 43.4363 121.036 43.448 120.681 43.448C117.154 43.448 114.344 42.4854 112.25 40.5601C110.155 38.6348 109.108 36.2192 109.108 33.3134C109.108 30.644 110.12 28.3879 112.143 26.5452C114.167 24.7026 116.681 23.7813 119.687 23.7813C120.657 23.7813 121.58 23.8996 122.456 24.1362C123.331 24.3729 124.172 24.7161 124.976 25.1657C126.396 25.9941 127.562 27.0886 128.473 28.4494C129.384 29.8103 129.84 31.1178 129.84 32.3722C129.84 33.5081 129.603 34.3128 129.13 34.7861C128.656 35.2595 127.816 35.4961 126.609 35.4961L117.379 35.4961ZM121.639 31.3072C121.45 30.1712 120.787 29.6032 119.651 29.6032C119.462 29.6032 119.32 29.6151 119.225 29.6387C118.397 29.8281 117.829 30.3961 117.521 31.3427L117.45 31.6622L121.675 31.6622L121.639 31.3072ZM100.233 25.5563C100.399 25.1539 100.564 24.8463 100.73 24.6333C101.298 23.9706 102.103 23.5801 103.144 23.4618C103.333 23.4381 103.594 23.4263 103.925 23.4263C104.801 23.4263 105.463 23.6511 105.913 24.1008C106.883 25.1184 107.368 26.3254 107.368 27.7217L107.368 39.7561C107.368 43.8504 106.357 46.9034 104.333 48.915C102.31 50.9266 99.3572 51.9325 95.4759 51.9325C94.4346 51.9325 93.5057 51.826 92.6892 51.613C91.8727 51.4 91.1332 51.1041 90.4705 50.7255C89.5475 50.2285 88.8434 49.6664 88.3583 49.0392C87.8731 48.4121 87.6305 47.779 87.6305 47.14C87.6305 46.643 87.7489 46.1579 87.9855 45.6845C88.5772 44.4775 89.512 43.874 90.79 43.8741C91.2633 43.8741 91.713 43.9569 92.139 44.1225L93.3815 44.584L93.9495 44.797C94.8961 45.1047 95.6771 45.2585 96.2924 45.2585C96.4818 45.2585 96.6238 45.2585 96.7184 45.2585C98.3988 45.0666 99.3099 44.3468 99.4519 43.0992L99.4874 42.6316C98.4697 43.2706 97.2746 43.5901 95.9019 43.5901C95.4049 43.5901 94.8015 43.5307 94.0915 43.412C93.0028 43.1986 91.9852 42.8076 91.0385 42.2388C89.6185 41.3613 88.518 40.1995 87.737 38.7532C86.956 37.307 86.5656 35.6831 86.5656 33.8815C86.5656 31.3444 87.2874 29.1453 88.731 27.2844C90.1747 25.4234 91.9733 24.2914 94.127 23.8883C94.411 23.817 94.7127 23.7694 95.0322 23.7458C95.3517 23.7221 95.6771 23.7103 96.0084 23.7103C96.8841 23.7103 97.6769 23.849 98.3869 24.1266C99.0969 24.4041 99.7122 24.8204 100.233 25.3754L100.233 25.5563ZM99.8423 34.3114C99.8897 33.9305 99.9133 33.6685 99.9133 33.5254C99.9133 33.359 99.9015 33.2401 99.8778 33.1687C99.7358 32.3593 99.4222 31.7224 98.9371 31.2581C98.4519 30.7939 97.8662 30.5617 97.1799 30.5617C96.9669 30.5617 96.6769 30.6152 96.3101 30.7223C95.9433 30.8294 95.5587 31.0853 95.1564 31.4903C94.6594 32.0616 94.4109 32.7877 94.4109 33.6685C94.4109 34.5493 94.6653 35.2576 95.1741 35.7932C95.683 36.3288 96.3279 36.5967 97.1089 36.5967C97.3455 36.5967 97.594 36.561 97.8543 36.4896C98.872 36.2038 99.5347 35.4777 99.8423 34.3114L99.8423 34.3114ZM65.0175 27.6718C65.0175 26.5059 65.3961 25.5541 66.1534 24.8166C66.9108 24.0791 67.8338 23.7103 68.9224 23.7103C69.8454 23.7103 70.6382 24.0298 71.3009 24.6688C71.5139 24.8818 71.7624 25.2131 72.0464 25.6628C72.141 25.5681 72.2002 25.4971 72.2239 25.4498C72.3422 25.3078 72.4487 25.2131 72.5434 25.1658C74.1053 24.1955 75.7265 23.7103 77.4068 23.7103C77.7145 23.7103 77.963 23.7221 78.1523 23.7458C78.3416 23.7695 78.6493 23.817 79.0753 23.8883C80.8266 24.2437 82.2229 25.0319 83.2643 26.253C84.3056 27.474 84.8262 28.867 84.8262 30.4319L84.8262 39.5359C84.8262 40.6264 84.4476 41.5629 83.6902 42.3454C82.9329 43.1278 81.9981 43.5191 80.8858 43.5191C79.7735 43.5191 78.8268 43.1463 78.0458 42.4008C77.2648 41.6553 76.8743 40.7264 76.8743 39.6141L76.8743 32.2302C76.8743 31.6622 76.6732 31.2007 76.2708 30.8457C75.8922 30.4434 75.4307 30.2422 74.8863 30.2422C74.342 30.2422 73.8746 30.4375 73.4841 30.828C73.0936 31.2185 72.8984 31.6859 72.8984 32.2302L72.8984 39.5786C72.8984 40.6673 72.5197 41.5962 71.7624 42.3653C71.0051 43.1345 70.0702 43.5191 68.9579 43.5191C67.8456 43.5191 66.9108 43.1264 66.1534 42.3412C65.3961 41.556 65.0175 40.6281 65.0175 39.5575L65.0175 27.6718Z" id="Cangeo" fill="#FFFFFF" stroke="none" />
    <path d="M51.7776 23.4884C51.9196 23.4647 52.0498 23.4529 52.1681 23.4529C52.3575 23.4529 52.4995 23.4529 52.5941 23.4529C53.0438 23.4529 53.4224 23.4944 53.7301 23.5774C54.0378 23.6604 54.3099 23.8204 54.5466 24.0575C55.5169 25.03 56.0021 26.2161 56.0021 27.6158L56.0021 39.5697C56.0021 40.7793 55.6353 41.7399 54.9016 42.4515C54.1679 43.1632 53.2331 43.519 52.0971 43.519C51.4818 43.519 50.76 43.2054 49.9317 42.5783C49.6713 42.3853 49.3163 42.0717 48.8667 41.6376L48.8667 41.815C48.8667 42.454 48.5531 42.9096 47.9259 43.1818C47.2988 43.4539 46.4527 43.59 45.3877 43.59C44.4647 43.59 43.4707 43.4896 42.4057 43.2888C41.3407 43.088 40.3113 42.6451 39.3173 41.9601C38.3233 41.2751 37.4476 40.3655 36.6903 39.2313C36.1696 38.4045 35.7851 37.495 35.5366 36.5029C35.2881 35.5107 35.1638 34.4476 35.1638 33.3134C35.1638 30.9509 35.9034 28.8896 37.3825 27.1296C38.8617 25.3696 40.6426 24.2888 42.7252 23.8872C43.3879 23.7692 43.9677 23.7103 44.4647 23.7103C46.2397 23.7103 47.707 24.2546 48.8667 25.3432C48.985 25.1291 49.1033 24.9627 49.2217 24.844C49.9317 24.0357 50.7836 23.5838 51.7776 23.4884L51.7776 23.4884Z" id="a" fill="#ef233c" fill-rule="evenodd" stroke="none" />
    <path d="M47.9789 35.3979C48.0499 35.2804 48.1208 35.1392 48.1919 34.9744C48.2629 34.8097 48.3161 34.5979 48.3516 34.3391C48.3871 34.0802 48.4049 33.8685 48.4049 33.704C48.4049 33.539 48.4049 33.4096 48.4049 33.3157C48.2359 32.1153 47.6806 31.3151 46.7391 30.915C46.2802 30.7505 45.906 30.6682 45.6165 30.6682C44.9886 30.6682 44.4332 30.8917 43.9505 31.3388C43.4677 31.7859 43.1539 32.3977 43.0089 33.1742L43.0089 33.8093C43.0089 34.5859 43.2633 35.286 43.7722 35.9096C44.281 36.5333 44.9141 36.8451 45.6714 36.8451C46.7127 36.8451 47.4819 36.3627 47.9789 35.3979L47.9789 35.3979Z" id="a-[1]" fill="#FFFFFF" fill-rule="evenodd" stroke="none" />
    <path d="M14.3964 22.3546C16.5973 19.684 19.4846 18.1004 23.0583 17.6038C24.0523 17.4622 24.9871 17.3914 25.8627 17.3914C28.3714 17.3914 30.3712 17.9094 31.8622 18.9456C33.1875 19.8641 33.8502 20.9593 33.8502 22.231C33.8502 23.0315 33.6135 23.7264 33.1402 24.3154C32.7852 24.764 32.4006 25.0948 31.9864 25.3078C31.5723 25.5208 31.0812 25.6273 30.5132 25.6273C30.0399 25.6273 29.5843 25.5918 29.1465 25.5208C28.7086 25.4498 28.3832 25.3788 28.1702 25.3078C27.6732 25.1184 27.2827 24.9705 26.9987 24.864C26.7147 24.7575 26.4248 24.6865 26.129 24.651C25.8332 24.6155 25.4486 24.5978 24.9753 24.5978C23.6263 24.5978 22.4548 24.9942 21.4608 25.787C20.4668 26.5798 19.816 27.7099 19.5083 29.1772C19.4373 29.5796 19.4018 29.9582 19.4018 30.3132C19.4018 30.6682 19.4373 31.0469 19.5083 31.4492C20.0763 34.4548 21.7566 35.9576 24.5493 35.9576C25.6852 35.9576 27.0461 35.6855 28.6317 35.1412L28.9867 35.0347C29.389 34.94 29.8269 34.8927 30.3002 34.8927C31.4362 34.8927 32.3355 35.2595 32.9982 35.9931C33.5898 36.6558 33.8857 37.3895 33.8857 38.1941C33.8857 38.9041 33.6372 39.6378 33.1402 40.3951C32.8325 40.8448 32.4065 41.2648 31.8622 41.6553C31.3178 42.0458 30.596 42.4067 29.6967 42.7381C28.4897 43.2114 27.0461 43.4481 25.3657 43.4481C24.5374 43.4481 23.6618 43.3772 22.7388 43.2356C20.2775 42.8337 18.1357 41.8881 16.3134 40.399C15.627 39.8321 14.9525 39.1469 14.2899 38.3433C12.3492 35.8144 11.3789 33.1317 11.3789 30.2955C11.3789 28.972 11.6392 27.613 12.1599 26.2186C12.6806 24.8241 13.4261 23.5361 14.3964 22.3546L14.3964 22.3546Z" id="C" fill="#ef233c" fill-rule="evenodd" stroke="none" />
    <path d="M141.621 22.8144L136.533 23.45C136.45 23.46 136.369 23.4272 136.317 23.3636C136.264 23.2993 136.248 23.2129 136.275 23.1338L136.889 21.2901L131.67 17.3755C131.599 17.3212 131.562 17.2328 131.576 17.1437C131.591 17.0547 131.654 16.9817 131.739 16.9535L133.484 16.3715L132.269 13.9417C132.227 13.8573 132.238 13.7562 132.296 13.6832C132.355 13.6102 132.45 13.576 132.543 13.6002L135.006 14.2156L135.605 12.4181C135.631 12.3384 135.697 12.2788 135.778 12.2593C135.859 12.2406 135.945 12.2647 136.004 12.3236L138.767 15.0863L137.607 9.86838C137.589 9.784 137.617 9.69492 137.681 9.63732C137.746 9.57906 137.838 9.5603 137.919 9.58776L139.745 10.1966L141.655 7.01397C141.742 6.86864 141.982 6.86864 142.069 7.01397L143.979 10.1966L145.805 9.58776C145.889 9.5603 145.978 9.57906 146.043 9.63732C146.108 9.69492 146.136 9.784 146.116 9.86838L144.957 15.0876L147.72 12.325C147.779 12.266 147.864 12.2413 147.946 12.2607C148.027 12.2801 148.093 12.3397 148.12 12.4194L148.719 14.217L151.182 13.6015C151.271 13.5794 151.369 13.6109 151.428 13.6845C151.487 13.7575 151.498 13.8587 151.456 13.9431L150.239 16.3729L151.985 16.9549C152.07 16.983 152.132 17.056 152.146 17.1451C152.16 17.2341 152.125 17.3225 152.052 17.3768L146.834 21.2907L147.449 23.1352C147.475 23.2142 147.459 23.3006 147.406 23.3649C147.355 23.4292 147.278 23.4627 147.19 23.4513L142.103 22.8157L141.621 22.8144Z" id="canada--maple-leaf_1_-path" fill="#FFFFFF" fill-rule="evenodd" stroke="none" />
  </g>
</svg>