<?xml version="1.0" encoding="utf-8"?>
<svg width="764.1142px" height="484px" viewBox="0 0 764.1142 484" version="1.1" xmlns:xlink="http://www.w3.org/1999/xlink" xmlns="http://www.w3.org/2000/svg">
  <defs>
    <path d="M0 0L764.114 0L764.114 484L0 484L0 0Z" id="path_1" />
    <clipPath id="mask_1">
      <use xlink:href="#path_1" />
    </clipPath>
  </defs>
  <g id="hero_image">
    <path d="M0 0L764.114 0L764.114 484L0 484L0 0Z" id="Background" fill="none" fill-rule="evenodd" stroke="none" />
    <g clip-path="url(#mask_1)">
      <path d="M758.378 317L463.386 317C460.219 316.996 457.653 314.43 457.65 311.264L457.65 5.73633C457.653 2.56955 460.22 0.00346375 463.386 0L758.378 0C761.544 0.00354004 764.111 2.5697 764.114 5.73633L764.114 311.264C764.111 314.43 761.545 316.996 758.378 317L758.378 317ZM463.386 2C461.323 2.00235 459.652 3.67378 459.65 5.73633L459.65 311.264C459.652 313.326 461.323 314.998 463.386 315L758.378 315C760.44 314.998 762.112 313.326 762.114 311.264L762.114 5.73633C762.112 3.67398 760.441 2.00246 758.378 2L463.386 2Z" id="Shape" fill="#3F3D56" fill-rule="evenodd" stroke="none" />
      <path d="M666.485 128.406C680.032 153.427 675.196 184.415 654.67 204.118C634.143 223.821 602.983 227.384 578.538 212.824C554.093 198.264 542.386 169.168 549.935 141.735C557.484 114.302 582.429 95.2912 610.882 95.2874C611.383 95.2873 611.883 95.2947 612.382 95.3063L611.714 68.3008C611.436 68.2983 611.16 68.2903 610.882 68.2903C569.924 68.3021 534.118 95.9126 523.694 135.521C513.27 175.13 530.846 216.79 566.492 236.961C602.138 257.133 646.9 250.751 675.489 221.422C704.077 192.092 709.311 147.18 688.233 112.063L666.485 128.406Z" id="Shape" fill="#ef233c" stroke="none" />
      <path d="M666.485 128.406L688.232 112.063C672.082 85.1507 643.098 68.5746 611.713 68.301L612.382 95.3065C635.048 95.8376 655.693 108.468 666.485 128.406L666.485 128.406Z" id="Shape" fill="#E6E6E6" stroke="none" />
      <path d="M655.686 237.039L656.802 235.934L688.48 267.911L687.364 269.016L655.686 237.039Z" id="Rectangle" fill="#3F3D56" fill-rule="evenodd" stroke="none" />
      <path d="M655.12 79.4485L677.139 40.1899L678.51 40.9586L656.491 80.2171L655.12 79.4485Z" id="Rectangle" fill="#3F3D56" fill-rule="evenodd" stroke="none" />
      <path d="M711.626 280.815L664.876 280.815C663.146 280.814 661.744 279.412 661.742 277.682L661.742 271.098C661.744 269.367 663.146 267.966 664.877 267.964L711.626 267.964C713.357 267.966 714.759 269.368 714.761 271.098L714.761 277.682C714.759 279.412 713.356 280.814 711.626 280.815L711.626 280.815Z" id="Shape" fill="#ef233c" stroke="none" />
      <path d="M699.775 41.1348L653.024 41.1348C651.294 41.1327 649.892 39.7309 649.89 38.001L649.89 31.4165C649.892 29.6865 651.294 28.2847 653.024 28.2827L699.775 28.2827C701.505 28.2848 702.907 29.6866 702.909 31.4165L702.909 38.001C702.907 39.7306 701.505 41.1325 699.775 41.1348L699.775 41.1348Z" id="Shape" fill="#E6E6E6" stroke="none" />
      <path d="M410.494 145.873L77.1249 145.873C74.1082 145.869 71.6635 143.424 71.6601 140.408L71.6601 6.46484C71.6634 3.44835 74.108 1.00356 77.1247 1L410.494 1C413.511 1.00352 415.955 3.4482 415.959 6.46484L415.959 140.408C415.955 143.424 413.511 145.869 410.494 145.873L410.494 145.873ZM77.1249 3C75.2122 3.00208 73.6622 4.55212 73.6601 6.46484L73.6601 140.408C73.6622 142.32 75.2122 143.871 77.1249 143.873L410.494 143.873C412.407 143.87 413.957 142.32 413.959 140.408L413.959 6.46484C413.957 4.55212 412.407 3.00214 410.494 3L77.1249 3Z" id="Shape" fill="#3F3D56" fill-rule="evenodd" stroke="none" />
      <path d="M207.077 112.631L174.777 112.631C173.073 112.628 171.621 111.392 171.345 109.71C169.238 96.026 169.238 82.1001 171.345 68.4161C171.621 66.734 173.073 65.4983 174.777 65.4951L207.077 65.4951C208.138 65.4918 209.14 65.9777 209.795 66.812C210.464 67.6582 210.705 68.7656 210.449 69.8135C207.428 82.4686 207.428 95.6573 210.449 108.313C210.705 109.36 210.464 110.468 209.795 111.314C209.14 112.148 208.138 112.634 207.077 112.631L207.077 112.631Z" id="Shape" fill="#E6E6E6" stroke="none" />
      <path d="M315.222 112.631L282.922 112.631C281.218 112.627 279.766 111.392 279.49 109.71C277.383 96.026 277.383 82.1001 279.49 68.4161C279.766 66.7341 281.218 65.4986 282.922 65.4951L315.222 65.4951C316.283 65.4918 317.285 65.9779 317.94 66.8125C318.609 67.6586 318.85 68.7659 318.594 69.8135C315.573 82.4687 315.573 95.6573 318.594 108.313C318.85 109.36 318.609 110.467 317.94 111.313C317.285 112.148 316.283 112.634 315.222 112.631L315.222 112.631Z" id="Shape" fill="#E6E6E6" stroke="none" />
      <path d="M152.138 81.3775L119.838 81.3775C118.134 81.3743 116.682 80.1386 116.406 78.4566C114.299 64.7725 114.299 50.8466 116.406 37.1626C116.682 35.4806 118.134 34.2449 119.838 34.2417L152.138 34.2417C153.198 34.2384 154.201 34.7243 154.856 35.5586C155.525 36.4048 155.766 37.5122 155.51 38.5601C152.488 51.2152 152.488 64.4039 155.51 77.0591C155.766 78.1069 155.525 79.2143 154.856 80.0605C154.201 80.8949 153.198 81.3808 152.138 81.3775L152.138 81.3775Z" id="Shape" fill="#ef233c" stroke="none" />
      <path d="M261.371 81.3775L229.071 81.3775C228.01 81.3809 227.007 80.8948 226.353 80.0601C225.684 79.2141 225.443 78.1068 225.699 77.0591C228.72 64.4039 228.72 51.2153 225.699 38.5601C225.443 37.5125 225.684 36.4052 226.353 35.5591C227.007 34.7245 228.01 34.2384 229.071 34.2417L261.371 34.2417C263.075 34.245 264.527 35.4806 264.803 37.1626C266.91 50.8467 266.91 64.7726 264.803 78.4566C264.527 80.1386 263.075 81.3743 261.371 81.3775L261.371 81.3775Z" id="Shape" fill="#ef233c" stroke="none" />
      <path d="M367.781 81.3775L335.481 81.3775C334.42 81.3808 333.418 80.8948 332.763 80.0601C332.094 79.2141 331.853 78.1067 332.109 77.0591C335.131 64.4039 335.131 51.2153 332.109 38.5601C331.853 37.5125 332.094 36.4052 332.763 35.5591C333.418 34.7244 334.42 34.2383 335.481 34.2417L367.781 34.2417C369.485 34.2452 370.937 35.4807 371.213 37.1626C373.32 50.8467 373.32 64.7725 371.213 78.4566C370.937 80.1385 369.485 81.3741 367.781 81.3775L367.781 81.3775Z" id="Shape" fill="#8E65FF" stroke="none" />
      <path d="M187.937 319.466C184.822 318.831 182.148 316.849 180.634 314.053C179.121 311.258 178.923 307.935 180.095 304.98L135.76 209.788L158.251 203.467L194.798 299.141C199.741 301.49 202.145 307.165 200.395 312.351C198.645 317.536 193.293 320.593 187.937 319.466L187.937 319.466Z" id="Shape" fill="#A0616A" stroke="none" />
      <path d="M102.079 471.364L114.339 471.364L120.171 424.076L102.077 424.076L102.079 471.364L102.079 471.364Z" id="Polygon" fill="#A0616A" fill-rule="evenodd" stroke="none" />
      <path d="M137.983 482.747L99.452 482.749L99.4513 467.862L123.095 467.861C131.317 467.86 137.982 474.525 137.983 482.747L137.983 482.747L137.983 482.747Z" id="Shape" fill="#2F2E41" stroke="none" />
      <path d="M38.354 458.148L49.623 462.975L73.605 421.804L56.972 414.68L38.354 458.148L38.354 458.148Z" id="Polygon" fill="#A0616A" fill-rule="evenodd" stroke="none" />
      <path d="M66.8753 482.748L31.4567 467.578L37.3179 453.894L59.0521 463.203C66.6098 466.44 70.1124 475.191 66.8753 482.748L66.8753 482.748L66.8753 482.748Z" id="Shape" fill="#2F2E41" stroke="none" />
      <path d="M107.829 140.57C107.829 127.005 118.826 116.009 132.391 116.009C145.955 116.009 156.952 127.005 156.952 140.57C156.952 154.134 145.955 165.131 132.391 165.131C118.826 165.131 107.829 154.134 107.829 140.57Z" id="Circle" fill="#A0616A" fill-rule="evenodd" stroke="none" />
      <path d="M114.646 459.803L101.15 457.232C98.8491 456.806 97.2646 454.679 97.5157 452.353L106.465 365.094C106.642 363.374 105.535 361.782 103.861 361.348C102.187 360.915 100.447 361.769 99.7661 363.359L60.6948 454.526C60.2204 455.632 59.3225 456.502 58.2018 456.942C57.0811 457.381 55.831 457.353 54.731 456.864L43.7542 451.986C41.6301 451.051 40.5708 448.649 41.3125 446.45L68.0347 366.283C68.1099 366.058 68.1619 365.825 68.1899 365.589L76.864 292.342C77.0566 290.713 78.1199 289.319 79.6392 288.701L107.028 277.575C108.683 276.903 110.58 277.273 111.861 278.52L146.431 312.181C147.526 313.242 148.006 314.787 147.706 316.281L119.902 456.259C119.478 458.363 117.631 459.877 115.485 459.882C115.204 459.882 114.923 459.856 114.646 459.803L114.646 459.803Z" id="Shape" fill="#2F2E41" stroke="none" />
      <path d="M99.2601 296.381C94.4755 290.841 90.9835 288.326 88.5953 288.723C86.2257 289.106 84.8588 292.416 83.4112 295.921C81.4357 300.705 79.1964 306.128 73.6769 306.552C71.9235 306.853 70.152 306.127 69.1146 304.682C64.7731 298.225 75.1866 276.857 76.1381 274.938L75.6497 173.877C75.6361 172.215 76.5413 170.682 78.0027 169.892C106.619 154.46 145.26 181.298 152.715 186.836L152.715 186.836C153.927 187.733 154.607 189.179 154.525 190.685C153.626 207.61 149.138 293.005 149.138 312.054C149.138 317.327 147.32 320.678 143.732 322.012C142.521 322.441 141.243 322.651 139.958 322.631C129.012 322.631 111.085 310.072 99.2601 296.381L99.2601 296.381Z" id="Shape" fill="#CCCCCC" stroke="none" />
      <path d="M139.196 247.309C137.982 246.52 137.227 245.189 137.173 243.742L135.235 198.477C134.988 192.72 138.953 187.635 144.595 186.469C150.238 185.304 155.893 188.402 157.947 193.785L172.454 231.802C173.337 234.124 172.174 236.722 169.854 237.61L143.273 247.754C141.923 248.277 140.402 248.111 139.196 247.309L139.196 247.309Z" id="Shape" fill="#CCCCCC" stroke="none" />
      <path d="M71.6489 318.037C69.0109 316.262 67.2944 313.411 66.9612 310.249C66.628 307.087 67.7124 303.94 69.9226 301.655L65.2324 196.75L88.4342 199.482L85.7408 301.864C89.4147 305.92 89.4739 312.083 85.8786 316.21C82.2833 320.336 76.17 321.121 71.6488 318.037L71.6489 318.037Z" id="Shape" fill="#A0616A" stroke="none" />
      <path d="M55.5376 224.685C54.6842 223.515 54.4534 222.002 54.919 220.631L69.2466 177.649C71.0684 172.182 76.5856 168.844 82.2729 169.767C87.9603 170.69 92.1387 175.602 92.1385 181.363L92.1385 222.054C92.1356 224.538 90.1225 226.551 87.6384 226.554L59.1883 226.554C57.7398 226.562 56.3781 225.864 55.5376 224.685L55.5376 224.685Z" id="Shape" fill="#CCCCCC" stroke="none" />
      <path d="M116.529 157.089C114.629 158.579 111.922 158.444 110.178 156.773C104.914 151.852 100.472 145.969 98.2236 139.155C95.6474 131.347 96.3055 122.202 101.239 115.625C105.41 110.064 112.011 106.923 118.513 104.468C121.052 103.394 123.733 102.698 126.473 102.4C129.241 102.113 132.014 102.892 134.228 104.578C136.436 106.341 137.338 109.276 136.503 111.975C139.838 108.946 143.906 106.842 148.305 105.87C151.089 105.132 154.031 105.254 156.745 106.22C160.516 107.77 162.965 111.558 164.094 115.476C165.027 118.465 165.103 121.656 164.312 124.685C163.491 127.731 161.418 130.287 158.606 131.718C155.156 133.343 151.062 132.729 147.455 131.492C143.847 130.255 140.427 128.429 136.696 127.639C132.965 126.85 128.657 127.311 126.017 130.063C124.158 132.001 123.426 134.727 122.761 137.329L119.302 150.863C118.92 152.834 118.19 154.722 117.145 156.437C116.97 156.681 116.763 156.9 116.529 157.089L116.529 157.089Z" id="Shape" fill="#2F2E41" stroke="none" />
      <path d="M216.138 352.377L183.838 352.377C182.134 352.374 180.682 351.139 180.406 349.457C178.299 335.773 178.299 321.847 180.406 308.163C180.682 306.481 182.134 305.245 183.838 305.242L216.138 305.242C217.198 305.238 218.201 305.724 218.856 306.559C219.525 307.405 219.766 308.512 219.51 309.56C216.489 322.215 216.489 335.404 219.51 348.059C219.766 349.107 219.525 350.214 218.856 351.06C218.201 351.895 217.198 352.381 216.138 352.377L216.138 352.377Z" id="Shape" fill="#ef233c" stroke="none" />
      <path d="M162 484L1 484C0.642735 484 0.312611 483.809 0.133976 483.5C-0.0446587 483.191 -0.0446587 482.809 0.133976 482.5C0.312611 482.191 0.642735 482 1 482L162 482C162.357 482 162.687 482.191 162.866 482.5C163.045 482.809 163.045 483.191 162.866 483.5C162.687 483.809 162.357 484 162 484L162 484Z" id="Shape" fill="#3F3D56" stroke="none" />
    </g>
  </g>
</svg>